<?xml version="1.0" encoding="UTF-8" ?>
<!DOCTYPE svg PUBLIC "-//W3C//DTD SVG 1.1//EN" "http://www.w3.org/Graphics/SVG/1.1/DTD/svg11.dtd">
<svg width="512pt" height="512pt" viewBox="0 0 512 512" version="1.1" xmlns="http://www.w3.org/2000/svg">
<g id="#ffffffff">
<path fill="#ffffff" opacity="1.00" d=" M 222.73 120.07 C 250.09 118.39 277.64 119.70 304.72 123.92 C 311.54 125.17 318.40 126.25 325.09 128.13 C 334.23 130.52 343.60 133.04 351.57 138.31 C 354.47 140.16 357.20 142.65 358.32 146.00 C 358.82 150.32 358.42 154.68 358.58 159.02 C 358.48 162.30 359.14 165.98 357.04 168.81 C 354.04 173.24 349.45 176.34 344.61 178.46 C 330.85 184.98 315.73 187.74 300.79 190.05 C 267.16 194.75 232.89 194.63 199.23 190.17 C 182.53 187.72 165.81 184.32 150.16 177.81 C 144.35 175.38 138.59 172.42 134.12 167.88 C 128.48 162.35 130.66 153.88 130.48 146.86 C 131.11 143.62 133.59 141.08 136.18 139.21 C 142.63 134.32 150.53 132.06 158.15 129.71 C 179.17 123.78 201.00 121.39 222.73 120.07 Z" />
<path fill="#ffffff" opacity="1.00" d=" M 370.31 169.00 C 376.07 170.69 380.75 176.18 381.58 182.12 C 381.77 191.03 381.80 199.96 381.60 208.88 C 380.59 214.45 376.00 218.60 371.37 221.43 C 358.14 229.48 342.96 233.48 327.95 236.73 C 305.30 241.66 282.08 243.17 258.96 243.42 C 236.31 243.01 213.56 241.32 191.43 236.18 C 181.66 233.85 171.86 230.94 163.15 225.82 C 158.76 223.19 154.49 219.27 153.52 214.04 C 153.28 206.83 153.42 199.60 153.60 192.38 C 181.60 202.30 211.47 205.20 240.96 206.27 C 269.52 206.65 298.32 204.82 326.13 197.92 C 336.30 195.24 346.49 191.96 355.55 186.49 C 362.19 182.53 368.52 176.85 370.31 169.00 Z" />
<path fill="#ffffff" opacity="1.00" d=" M 130.57 230.66 C 131.94 225.03 136.94 221.46 141.33 218.18 C 143.44 223.42 146.41 228.47 150.93 231.99 C 163.13 241.80 178.58 246.09 193.55 249.62 C 211.55 253.20 229.84 255.34 248.19 255.77 C 260.45 256.87 272.73 255.49 285.00 255.38 C 309.91 253.68 335.01 250.10 358.46 241.20 C 358.67 247.45 358.56 253.71 358.63 259.97 C 358.57 262.39 358.79 265.04 357.38 267.16 C 353.59 273.67 346.51 277.15 339.78 279.87 C 320.14 287.61 298.96 290.52 278.01 291.96 C 268.04 293.09 257.97 292.29 247.98 293.11 C 239.66 292.34 231.28 292.90 222.97 292.02 C 200.79 290.36 178.60 286.80 157.50 279.56 C 148.67 276.07 139.23 272.46 132.99 264.95 C 129.26 260.47 130.52 254.39 130.33 249.05 C 130.49 242.92 129.99 236.76 130.57 230.66 Z" />
<path fill="#ffffff" opacity="1.00" d=" M 370.59 267.98 C 375.93 270.01 380.16 274.84 381.52 280.36 C 381.93 288.91 381.58 297.49 381.68 306.05 C 382.03 312.84 376.08 317.58 371.06 321.07 C 351.06 332.35 328.12 336.82 305.64 340.05 C 284.54 342.65 263.22 343.24 241.99 342.39 C 217.39 340.86 192.32 338.12 169.40 328.48 C 163.03 325.47 155.91 321.41 153.64 314.31 C 153.16 306.66 153.49 298.96 153.62 291.31 C 178.42 300.24 204.75 303.93 230.96 305.41 C 251.68 306.05 272.51 306.03 293.11 303.38 C 307.40 301.56 321.72 299.21 335.40 294.59 C 345.14 291.45 354.76 287.25 362.54 280.47 C 366.31 277.13 369.14 272.81 370.59 267.98 Z" />
<path fill="#ffffff" opacity="1.00" d=" M 130.32 333.97 C 129.89 326.85 135.59 320.51 141.89 318.08 C 144.20 327.30 152.32 333.44 160.29 337.72 C 171.99 343.81 184.88 347.19 197.73 349.88 C 218.22 353.91 239.12 355.73 260.00 355.57 C 288.97 355.69 318.10 352.59 346.05 344.75 C 350.28 343.68 354.26 341.82 358.54 340.95 C 358.59 347.94 358.63 354.94 358.55 361.93 C 358.58 365.71 356.04 368.93 353.30 371.27 C 344.60 378.69 333.25 381.64 322.52 384.77 C 292.56 391.86 261.57 393.39 230.91 392.16 C 203.68 390.41 176.04 386.80 150.65 376.24 C 142.87 372.49 133.46 368.25 130.64 359.36 C 129.94 350.93 130.52 342.43 130.32 333.97 Z" />
</g>
<g id="#14b67fff">
<path fill="#14b67f" opacity="1.00" d=" M 75.48 0.00 L 437.46 0.00 C 456.28 1.60 474.69 9.52 488.06 22.98 C 502.49 36.88 511.05 56.49 512.00 76.46 L 512.00 437.49 C 510.62 453.22 504.98 468.68 495.13 481.09 C 484.41 494.99 468.97 505.16 451.96 509.49 C 447.31 510.62 442.57 511.31 437.84 512.00 L 76.43 512.00 C 56.46 510.95 36.87 502.51 22.96 488.06 C 9.44 474.60 1.50 456.14 0.00 437.21 L 0.00 75.43 C 1.29 56.07 9.48 37.08 23.43 23.48 C 37.06 9.52 56.07 1.22 75.48 0.00 M 222.73 120.07 C 201.00 121.39 179.17 123.78 158.15 129.71 C 150.53 132.06 142.63 134.32 136.18 139.21 C 133.59 141.08 131.11 143.62 130.48 146.86 C 130.66 153.88 128.48 162.35 134.12 167.88 C 138.59 172.42 144.35 175.38 150.16 177.81 C 165.81 184.32 182.53 187.72 199.23 190.17 C 232.89 194.63 267.16 194.75 300.79 190.05 C 315.73 187.74 330.85 184.98 344.61 178.46 C 349.45 176.34 354.04 173.24 357.04 168.81 C 359.14 165.98 358.48 162.30 358.58 159.02 C 358.42 154.68 358.82 150.32 358.32 146.00 C 357.20 142.65 354.47 140.16 351.57 138.31 C 343.60 133.04 334.23 130.52 325.09 128.13 C 318.40 126.25 311.54 125.17 304.72 123.92 C 277.64 119.70 250.09 118.39 222.73 120.07 M 370.31 169.00 C 368.52 176.85 362.19 182.53 355.55 186.49 C 346.49 191.96 336.30 195.24 326.13 197.92 C 298.32 204.82 269.52 206.65 240.96 206.27 C 211.47 205.20 181.60 202.30 153.60 192.38 C 153.42 199.60 153.28 206.83 153.52 214.04 C 154.49 219.27 158.76 223.19 163.15 225.82 C 171.86 230.94 181.66 233.85 191.43 236.18 C 213.56 241.32 236.31 243.01 258.96 243.42 C 282.08 243.17 305.30 241.66 327.95 236.73 C 342.96 233.48 358.14 229.48 371.37 221.43 C 376.00 218.60 380.59 214.45 381.60 208.88 C 381.80 199.96 381.77 191.03 381.58 182.12 C 380.75 176.18 376.07 170.69 370.31 169.00 M 130.57 230.66 C 129.99 236.76 130.49 242.92 130.33 249.05 C 130.52 254.39 129.26 260.47 132.99 264.95 C 139.23 272.46 148.67 276.07 157.50 279.56 C 178.60 286.80 200.79 290.36 222.97 292.02 C 231.28 292.90 239.66 292.34 247.98 293.11 C 257.97 292.29 268.04 293.09 278.01 291.96 C 298.96 290.52 320.14 287.61 339.78 279.87 C 346.51 277.15 353.59 273.67 357.38 267.16 C 358.79 265.04 358.57 262.39 358.63 259.97 C 358.56 253.71 358.67 247.45 358.46 241.20 C 335.01 250.10 309.91 253.68 285.00 255.38 C 272.73 255.49 260.45 256.87 248.19 255.77 C 229.84 255.34 211.55 253.20 193.55 249.62 C 178.58 246.09 163.13 241.80 150.93 231.99 C 146.41 228.47 143.44 223.42 141.33 218.18 C 136.94 221.46 131.94 225.03 130.57 230.66 M 370.59 267.98 C 369.14 272.81 366.31 277.13 362.54 280.47 C 354.76 287.25 345.14 291.45 335.40 294.59 C 321.72 299.21 307.40 301.56 293.11 303.38 C 272.51 306.03 251.68 306.05 230.96 305.41 C 204.75 303.93 178.42 300.24 153.62 291.31 C 153.49 298.96 153.16 306.66 153.64 314.31 C 155.91 321.41 163.03 325.47 169.40 328.48 C 192.32 338.12 217.39 340.86 241.99 342.39 C 263.22 343.24 284.54 342.65 305.64 340.05 C 328.12 336.82 351.06 332.35 371.06 321.07 C 376.08 317.58 382.03 312.84 381.68 306.05 C 381.58 297.49 381.93 288.91 381.52 280.36 C 380.16 274.84 375.93 270.01 370.59 267.98 M 130.32 333.97 C 130.52 342.43 129.94 350.93 130.64 359.36 C 133.46 368.25 142.87 372.49 150.65 376.24 C 176.04 386.80 203.68 390.41 230.91 392.16 C 261.57 393.39 292.56 391.86 322.52 384.77 C 333.25 381.64 344.60 378.69 353.30 371.27 C 356.04 368.93 358.58 365.71 358.55 361.93 C 358.63 354.94 358.59 347.94 358.54 340.95 C 354.26 341.82 350.28 343.68 346.05 344.75 C 318.10 352.59 288.97 355.69 260.00 355.57 C 239.12 355.73 218.22 353.91 197.73 349.88 C 184.88 347.19 171.99 343.81 160.29 337.72 C 152.32 333.44 144.20 327.30 141.89 318.08 C 135.59 320.51 129.89 326.85 130.32 333.97 Z" />
</g>
</svg>
